<svg xmlns="http://www.w3.org/2000/svg" xmlns:xlink="http://www.w3.org/1999/xlink" viewBox="0 0 24 24"><defs><path id="a" d="M3 0v24h18V0H3Zm16.2 22.118H4.8V1.882h14.4v20.236ZM8.85 11.765H6.6V9.412h2.25v2.353Zm2.025-2.353h2.25v2.353h-2.25V9.412Zm4.275 0h2.25v2.353h-2.25V9.412ZM8.85 16H6.6v-2.353h2.25V16Zm2.025-2.353h2.25V16h-2.25v-2.353ZM8.85 20.235H6.6v-2.353h2.25v2.353Zm2.025-2.353h2.25v2.353h-2.25v-2.353Zm4.275-4.235h2.25v6.588h-2.25v-6.588ZM17.4 7.53H6.6V3.765h10.8v3.764Z"/></defs><use xlink:href="#a" fill="#000" fill-rule="nonzero"/></svg>
